<svg height="313" viewBox="0 0 448 313" width="448" xmlns="http://www.w3.org/2000/svg"><path d="m1253.99265 222.011024c14.45879-14.951706 34.50394-24.317061 56.68504-24.317061 29.5748 0 55.2063 16.430446 69.00787 40.911811 11.99423-5.257743 25.13859-8.215223 38.94016-8.215223 53.23465 0 96.44672 43.540683 96.44672 97.268242s-43.21207 97.268241-96.44672 97.268241c-6.57218 0-12.81575-.657218-19.05932-1.971653-11.99422 21.523884-35.16115 36.146981-61.44986 36.146981-11.0084 0-21.52389-2.628871-30.88924-7.065092-12.32284 28.753281-40.74751 48.96273-73.93701 48.96273-34.66824 0-64.07874-21.852493-75.41575-52.577428-4.92913.985827-10.02257 1.643045-15.28031 1.643045-41.24042 0-74.59423-33.846719-74.59423-75.415748 0-27.931759 14.95171-52.248819 37.29711-65.393176-4.60052-10.515486-7.06509-22.181102-7.06509-34.503937 0-47.976903 38.94016-86.752756 86.91706-86.752756 27.93176 0 52.90604 13.308661 68.84357 34.011024z" fill="#0e95ca" transform="translate(-1068 -188)"/></svg>